<svg width="35" height="35" viewBox="0 0 35 35" fill="none" xmlns="http://www.w3.org/2000/svg">
<g clip-path="url(#clip0_0_597)">
<path d="M8.86837 14.892C7.32242 14.892 6.05756 16.1568 6.05756 17.7028C6.05756 19.2487 7.32242 20.5136 8.86837 20.5136C10.4143 20.5136 11.6792 19.2487 11.6792 17.7028C11.6792 16.1568 10.4143 14.892 8.86837 14.892ZM25.7332 14.892C24.1873 14.892 22.9224 16.1568 22.9224 17.7028C22.9224 19.2487 24.1873 20.5136 25.7332 20.5136C27.2792 20.5136 28.5441 19.2487 28.5441 17.7028C28.5441 16.1568 27.2792 14.892 25.7332 14.892ZM17.3008 14.892C15.7549 14.892 14.49 16.1568 14.49 17.7028C14.49 19.2487 15.7549 20.5136 17.3008 20.5136C18.8468 20.5136 20.1116 19.2487 20.1116 17.7028C20.1116 16.1568 18.8468 14.892 17.3008 14.892Z" fill="white"/>
</g>
<defs>
<clipPath id="clip0_0_597">
<rect x="0.435913" y="0.837891" width="33.7298" height="33.7297" rx="12" fill="white"/>
</clipPath>
</defs>
</svg>
