<svg width="20" height="20" viewBox="0 0 20 20" fill="none" xmlns="http://www.w3.org/2000/svg">
<path d="M5.83331 17.5C5.37498 17.5 4.98276 17.3369 4.65665 17.0108C4.33054 16.6847 4.1672 16.2922 4.16665 15.8333V5C3.93054 5 3.73276 4.92 3.57331 4.76C3.41387 4.6 3.33387 4.40222 3.33331 4.16667C3.33331 3.93056 3.41331 3.73278 3.57331 3.57333C3.73331 3.41389 3.93109 3.33389 4.16665 3.33333H7.49998C7.49998 3.09722 7.57998 2.89944 7.73998 2.74C7.89998 2.58056 8.09776 2.50056 8.33331 2.5H11.6666C11.9028 2.5 12.1008 2.58 12.2608 2.74C12.4208 2.9 12.5005 3.09778 12.5 3.33333H15.8333C16.0694 3.33333 16.2675 3.41333 16.4275 3.57333C16.5875 3.73333 16.6672 3.93111 16.6666 4.16667C16.6666 4.40278 16.5866 4.60083 16.4266 4.76083C16.2666 4.92083 16.0689 5.00056 15.8333 5V15.8333C15.8333 16.2917 15.6703 16.6842 15.3441 17.0108C15.018 17.3375 14.6255 17.5006 14.1666 17.5H5.83331ZM14.1666 5H5.83331V15.8333H14.1666V5ZM9.99998 11.5833L11.5833 13.1667C11.7361 13.3194 11.9305 13.3958 12.1666 13.3958C12.4028 13.3958 12.5972 13.3194 12.75 13.1667C12.9028 13.0139 12.9791 12.8194 12.9791 12.5833C12.9791 12.3472 12.9028 12.1528 12.75 12L11.1666 10.4167L12.75 8.83333C12.9028 8.68056 12.9791 8.48611 12.9791 8.25C12.9791 8.01389 12.9028 7.81944 12.75 7.66667C12.5972 7.51389 12.4028 7.4375 12.1666 7.4375C11.9305 7.4375 11.7361 7.51389 11.5833 7.66667L9.99998 9.25L8.41665 7.66667C8.26387 7.51389 8.06942 7.4375 7.83331 7.4375C7.5972 7.4375 7.40276 7.51389 7.24998 7.66667C7.0972 7.81944 7.02081 8.01389 7.02081 8.25C7.02081 8.48611 7.0972 8.68056 7.24998 8.83333L8.83331 10.4167L7.24998 12C7.0972 12.1528 7.02081 12.3472 7.02081 12.5833C7.02081 12.8194 7.0972 13.0139 7.24998 13.1667C7.40276 13.3194 7.5972 13.3958 7.83331 13.3958C8.06942 13.3958 8.26387 13.3194 8.41665 13.1667L9.99998 11.5833Z" fill="#F93232"/>
</svg>
